<svg width="34" height="37" viewBox="0 0 34 37" fill="none" xmlns="http://www.w3.org/2000/svg">
<path fill-rule="evenodd" clip-rule="evenodd" d="M17.4868 36.3333C19.3014 36.3333 23.9561 35.5153 28.0586 32.2432C32.7759 28.4805 33.2204 26.3821 33.5071 25.0291C33.532 24.9114 33.5557 24.7993 33.5811 24.6921C33.6289 24.4894 33.6568 24.2141 33.6665 23.8869C32.6756 23.7264 31.2867 23.6345 29.6659 23.8269C27.0151 24.1415 24.9323 25.9506 24.2223 26.8159C23.8278 24.8494 21.9028 20.9166 17.3585 20.9166C12.8143 20.9166 10.3633 24.8494 9.70586 26.8159C9.28509 26.0817 7.71774 24.4562 4.81446 23.8269C3.01935 23.4379 1.45347 23.6301 0.33313 23.9575C0.421582 25.4197 0.90221 26.9793 2.18142 28.625C4.38255 31.4566 7.79785 33.2051 9.3216 33.9852C9.49091 34.0719 9.63686 34.1466 9.7552 34.2096C10.9386 34.8388 14.1732 36.3333 17.4868 36.3333Z" fill="white"/>
<path fill-rule="evenodd" clip-rule="evenodd" d="M33.6629 23.8294C32.6725 23.6694 31.2845 23.5777 29.6647 23.7696C27.0154 24.0833 24.9338 25.8872 24.2242 26.75C23.8299 24.7892 21.906 20.8676 17.3644 20.8676C12.8228 20.8676 10.3733 24.7892 9.71619 26.75C9.29566 26.0179 7.72923 24.397 4.82763 23.7696C3.03356 23.3817 1.4686 23.5734 0.348907 23.8999C0.268295 22.5702 0.513608 21.3214 0.776857 20.1617C1.2184 18.2166 2.32753 15.6389 2.8269 14.5931C2.38009 13.5212 1.34456 10.4833 0.776857 6.90684C0.209153 3.33037 1.1711 0.919914 1.72303 0.161744C2.61663 0.397038 4.75079 1.13429 6.13851 2.20096C7.52623 3.26763 9.66037 5.62579 10.554 6.67155C11.7104 6.35782 14.6856 5.73037 17.3349 5.73037C19.9842 5.73037 22.5389 6.35782 23.4851 6.67155C24.2735 5.73037 26.2132 3.51861 27.664 2.20096C29.1148 0.883313 31.4748 0.240176 32.4737 0.083313C32.7364 0.423183 33.2937 1.41665 33.4199 2.67155C33.5776 4.24018 33.1045 7.53429 32.4737 9.73037C31.9691 11.4872 31.3172 13.5474 31.0544 14.3578C31.1858 14.6454 31.6379 15.5814 32.3948 17.0245C33.1975 18.5548 33.7163 22.0041 33.6629 23.8294Z" fill="#FFAA35"/>
<path d="M20.7238 30.8091C20.5363 31.06 20.3331 31.5409 20.255 31.75V31.6716L20.0206 29.7899C19.578 29.8421 18.4269 29.9467 17.3644 29.9467C16.3019 29.9467 15.0467 29.8421 14.5519 29.7899L14.4738 31.6716C14.4217 31.5932 14.2863 31.3736 14.1613 31.1227C14.005 30.8091 13.4581 30.3387 13.4581 30.1035C13.4581 29.9153 13.1977 29.5025 13.0675 29.3195L12.8331 29.0059H14.2394L14.5519 29.2411C14.8123 29.2149 15.4738 29.194 16.0363 29.3195C16.5988 29.4449 16.9477 28.9536 17.0519 28.6922V27.4378C16.8175 27.281 16.2394 26.9203 15.8019 26.7322C15.255 26.497 14.7081 25.5561 14.8644 24.6153C15.0206 23.6745 15.4894 23.3609 15.8019 23.4393C16.1144 23.5177 18.1456 23.3609 18.4581 23.4393C18.7706 23.5177 19.3175 23.6745 19.5519 24.0665C19.7863 24.4585 19.63 26.0266 19.1613 26.5754C18.7863 27.0144 18.0675 27.3332 17.755 27.4378V28.6922C17.755 28.8491 18.3019 29.2411 18.38 29.3195C18.4581 29.3979 19.63 29.3195 19.8644 29.3195C20.0519 29.3195 20.203 29.1627 20.255 29.0843H21.5831V29.3979C21.5831 29.5547 21.3488 30.2603 21.2706 30.3387C21.1925 30.4171 20.9581 30.4955 20.7238 30.8091Z" fill="black"/>
<path d="M18.2101 30.2916L17.4165 30.9166L16.7816 30.2916L16.226 30.5694L15.7498 30.0833H19.0832L18.607 30.6389L18.2101 30.2916Z" fill="black"/>
<path d="M9.66872 17.4712C8.73891 17.0865 7.73161 16.8301 7.34419 16.75C7.24087 16.8034 7.03425 16.9744 7.03425 17.2308C7.03425 17.5513 6.95677 17.8718 7.03425 18.5128C7.11174 19.1538 7.73161 19.5545 8.81639 20.0353C9.90117 20.516 11.7608 20.9167 13.078 20.9167C14.3953 20.9167 13.1555 19.5545 12.6906 19.234C12.2257 18.9135 10.831 17.9519 9.66872 17.4712Z" fill="black"/>
<path d="M10.9412 15.3447C10.2464 15.4689 9.28304 15.5 8.88823 15.5C8.49342 15.4483 7.65644 15.2049 7.46693 14.6457C7.23005 13.9467 7.86174 13.1701 8.65135 12.7818C9.44096 12.3935 10.4675 12.5488 11.0991 13.4807C11.7308 14.4127 11.8098 15.1893 10.9412 15.3447Z" fill="white"/>
<path d="M25.1643 17.0545C26.0941 16.6699 27.1014 16.4134 27.4888 16.3333C27.5922 16.3867 27.7987 16.5577 27.7987 16.8141C27.7987 17.1346 27.8762 17.4551 27.7987 18.0961C27.7212 18.7372 27.1014 19.1378 26.0166 19.6186C24.9318 20.0993 23.0722 20.5 21.755 20.5C20.4377 20.5 21.6775 19.1378 22.1424 18.8173C22.6073 18.4968 24.002 17.5352 25.1643 17.0545Z" fill="black"/>
<path d="M22.6418 15.3447C23.3366 15.4689 24.3 15.5 24.6948 15.5C25.0896 15.4482 25.9266 15.2049 26.1161 14.6457C26.3529 13.9467 25.7213 13.1701 24.9316 12.7818C24.142 12.3935 23.1155 12.5488 22.4838 13.4807C21.8522 14.4127 21.7732 15.1893 22.6418 15.3447Z" fill="white"/>
<path d="M5.51201 9.53097C4.9442 10.1511 3.85591 11.5465 3.38274 12.1666C3.06729 11.4948 2.3733 9.70151 2.12095 7.90306C1.86859 6.10461 2.06838 3.32942 2.19981 2.16663C2.54155 2.19247 3.54046 2.4767 4.80225 3.40694C6.06404 4.33717 7.90416 6.06844 8.66648 6.81779C7.85157 7.46379 6.07981 8.91081 5.51201 9.53097Z" fill="#FF8C30"/>
<path fill-rule="evenodd" clip-rule="evenodd" d="M1.99982 3.64326C3.24001 4.16079 4.87249 4.95191 5.55663 5.66693C6.25062 6.39226 6.86114 7.35242 7.22359 7.99996C7.76774 7.54879 8.30845 7.11536 8.66648 6.8337C7.89567 6.08179 6.03507 4.3446 4.75923 3.41118C3.48339 2.47776 2.47336 2.19256 2.12782 2.16663C2.08656 2.52882 2.03865 3.04695 1.99982 3.64326Z" fill="#FF9A32"/>
<path d="M28.071 9.53097C28.6388 10.1511 29.7271 11.5465 30.2003 12.1666C30.5157 11.4948 31.2097 9.70151 31.4621 7.90306C31.7144 6.10461 31.5146 3.32942 31.3832 2.16663C31.0414 2.19247 30.0425 2.4767 28.7807 3.40694C27.519 4.33717 25.6788 6.06844 24.9165 6.81779C25.7315 7.46379 27.5032 8.91081 28.071 9.53097Z" fill="#FF8C30"/>
<path fill-rule="evenodd" clip-rule="evenodd" d="M31.5832 3.64326C30.3429 4.16079 28.7105 4.95191 28.0263 5.66693C27.3323 6.39226 26.7218 7.35242 26.3595 7.99996C25.8153 7.54879 25.2745 7.11536 24.9165 6.8337C25.6873 6.08179 27.5479 4.3446 28.8237 3.41118C30.0995 2.47776 31.1095 2.19256 31.4551 2.16663C31.4964 2.52882 31.5443 3.04695 31.5832 3.64326Z" fill="#FF9A32"/>
</svg>
